<svg width="56" height="56" viewBox="0 0 56 56" fill="none" xmlns="http://www.w3.org/2000/svg">
<path d="M46.6673 22.6667C41.3207 20.9817 34.9026 20 28.0007 20C21.0987 20 14.6806 20.9817 9.33398 22.6667V32C14.6806 30.3151 21.0987 29.3333 28.0007 29.3333C34.9026 29.3333 41.3207 30.3151 46.6673 32V22.6667Z" fill="#DE028E" stroke="#DE028E" stroke-width="3" stroke-linejoin="round"/>
<path d="M46.6673 30.6666V36.0618C46.6673 41.7445 43.9151 47.0106 39.4171 49.9344L35.6838 52.3611C30.9547 55.4351 25.0466 55.4351 20.3175 52.3611L16.5842 49.9344C12.0862 47.0106 9.33398 41.7445 9.33398 36.0618V30.6666" stroke="#DE028E" stroke-width="1.5" stroke-linecap="round"/>
<path d="M46.6673 22.6666L49.6691 21.0856C53.0373 18.8766 54.7214 17.7722 54.666 16.1941C54.6105 14.6161 52.8539 13.6561 49.3406 11.736L36.7348 4.84681C32.4489 2.50448 30.3059 1.33331 28.0006 1.33331C25.6954 1.33331 23.5524 2.50448 19.2665 4.84681L6.66072 11.736C3.14741 13.6561 1.39076 14.6161 1.33531 16.1941C1.27986 17.7722 2.96398 18.8766 6.33221 21.0856L9.33398 22.6666" stroke="#DE028E" stroke-width="1.5" stroke-linecap="round"/>
</svg>
